<svg width="16" height="16" viewBox="0 0 16 16" fill="none" xmlns="http://www.w3.org/2000/svg">
<g clip-path="url(#clip0_2716_147211)">
<path d="M8.52616 15.7821L13.2875 11.0208C13.578 10.7303 13.578 10.2591 13.2875 9.96863C12.9969 9.67807 12.5259 9.67807 12.2354 9.96863L8.74405 13.4599V0.743959C8.74405 0.333115 8.41093 0 8.00009 0C7.5893 0 7.25613 0.333115 7.25613 0.743959L7.25613 13.4599L3.76482 9.96875C3.47426 9.67819 3.00324 9.67819 2.71268 9.96875C2.56752 10.114 2.49479 10.3044 2.49479 10.4948C2.49479 10.6852 2.56752 10.8756 2.71268 11.0209L7.47402 15.7821C7.76458 16.0727 8.2356 16.0727 8.52616 15.7821Z" fill="#666666"/>
</g>
<defs>
<clipPath id="clip0_2716_147211">
<rect width="16" height="16" fill="white"/>
</clipPath>
</defs>
</svg>
