<svg width="24" height="24" viewBox="0 0 24 24" fill="none" xmlns="http://www.w3.org/2000/svg">
<path d="M12.0053 22.001C17.4832 22.001 22 17.4842 22 12.0063C22 6.51779 17.4832 2.00098 11.9947 2.00098C6.50614 2.00098 2 6.51779 2 12.0063C2 17.4842 6.51682 22.001 12.0053 22.001ZM12.0053 20.9438C7.05072 20.9438 3.05713 16.9503 3.05713 12.0063C3.05713 7.06238 7.05072 3.0581 11.9947 3.0581C16.9386 3.0581 20.9429 7.06238 20.9429 12.0063C20.9536 16.9503 16.9493 20.9438 12.0053 20.9438ZM8.05446 14.1206C8.05446 14.4836 8.31073 14.7079 8.68446 14.7079H11.5569V16.9289C11.5569 17.7404 11.8558 18.4345 11.9947 18.4345C12.1335 18.4345 12.4431 17.7404 12.4431 16.9289V14.7079H15.2942C15.6893 14.7079 15.9349 14.4836 15.9349 14.1206C15.9349 12.9567 15.0272 11.8034 13.575 11.3122L13.4042 8.74951C14.0021 8.39713 14.6215 7.91662 14.9204 7.53221C15.0593 7.36136 15.1233 7.17983 15.1233 7.04102C15.1233 6.77407 14.9311 6.58186 14.6108 6.58186H9.38922C9.07955 6.58186 8.86599 6.77407 8.86599 7.04102C8.86599 7.19051 8.95142 7.37204 9.10091 7.56424C9.39989 7.94865 10.0085 8.40781 10.5958 8.74951L10.4143 11.3122C8.97277 11.8034 8.05446 12.9567 8.05446 14.1206Z" fill="#9B9B9B"/>
</svg>
