<svg width="24" height="24" viewBox="0 0 24 24" fill="none" xmlns="http://www.w3.org/2000/svg">
<path d="M12.0002 3.19995C11.4167 3.19995 10.8571 3.43174 10.4446 3.84432C10.032 4.2569 9.80019 4.81647 9.80019 5.39995V18.5999C9.80019 19.1834 10.032 19.743 10.4446 20.1556C10.8571 20.5682 11.4167 20.7999 12.0002 20.7999C12.5837 20.7999 13.1432 20.5682 13.5558 20.1556C13.9684 19.743 14.2002 19.1834 14.2002 18.5999V5.39995C14.2002 4.81647 13.9684 4.2569 13.5558 3.84432C13.1432 3.43174 12.5837 3.19995 12.0002 3.19995ZM5.4002 12C4.81672 12 4.25714 12.2317 3.84456 12.6443C3.43198 13.0569 3.2002 13.6165 3.2002 14.2V18.5999C3.2002 19.1834 3.43198 19.743 3.84456 20.1556C4.25714 20.5682 4.81672 20.7999 5.4002 20.7999C5.98367 20.7999 6.54325 20.5682 6.95583 20.1556C7.36841 19.743 7.60019 19.1834 7.60019 18.5999V14.2C7.60019 13.6165 7.36841 13.0569 6.95583 12.6443C6.54325 12.2317 5.98367 12 5.4002 12ZM18.6002 7.59995C18.0167 7.59995 17.4571 7.83174 17.0446 8.24432C16.632 8.6569 16.4002 9.21647 16.4002 9.79995V18.5999C16.4002 19.1834 16.632 19.743 17.0446 20.1556C17.4571 20.5682 18.0167 20.7999 18.6002 20.7999C19.1837 20.7999 19.7432 20.5682 20.1558 20.1556C20.5684 19.743 20.8002 19.1834 20.8002 18.5999V9.79995C20.8002 9.21647 20.5684 8.6569 20.1558 8.24432C19.7432 7.83174 19.1837 7.59995 18.6002 7.59995Z" fill="#F75266"/>
</svg>
