<svg width="24" height="24" viewBox="0 0 24 24" fill="none" xmlns="http://www.w3.org/2000/svg">
<path d="M3.64329 13.4848C3.45784 13.4848 3.30426 13.4239 3.18256 13.3022C3.06085 13.1805 3 13.024 3 12.8328V9.98086C3 9.23905 3.16227 8.60445 3.48681 8.07707C3.81136 7.54389 4.2634 7.13532 4.84294 6.85134C5.42828 6.56737 6.11793 6.42538 6.9119 6.42538H13.0927V4.47812C13.0927 4.32165 13.1362 4.20284 13.2231 4.1217C13.31 4.04057 13.4317 4 13.5882 4C13.6578 4 13.7244 4.01159 13.7882 4.03477C13.8577 4.05795 13.9243 4.09273 13.9881 4.13909L17.0741 6.66879C17.2074 6.7789 17.2712 6.90929 17.2654 7.05998C17.2654 7.20486 17.2016 7.32946 17.0741 7.43378L13.9881 9.96347C13.9243 10.0098 13.8577 10.0475 13.7882 10.0765C13.7244 10.0997 13.6578 10.1113 13.5882 10.1113C13.4317 10.1113 13.31 10.0707 13.2231 9.98955C13.1362 9.90262 13.0927 9.78092 13.0927 9.62444V7.68588H6.79889C6.0281 7.68588 5.41668 7.90031 4.96464 8.32917C4.5184 8.75223 4.29527 9.33177 4.29527 10.0678V12.8328C4.29527 13.024 4.23442 13.1805 4.11272 13.3022C3.99101 13.4239 3.83454 13.4848 3.64329 13.4848ZM19.5951 11.5065C19.7864 11.5065 19.94 11.5674 20.0559 11.6891C20.1776 11.8108 20.2384 11.9644 20.2384 12.1498V15.0018C20.2384 15.7436 20.0762 16.3811 19.7516 16.9142C19.4329 17.4474 18.9808 17.856 18.3955 18.14C17.8102 18.4239 17.1205 18.5659 16.3265 18.5659H10.1544V20.5219C10.1544 20.6784 10.111 20.7972 10.024 20.8783C9.9371 20.9594 9.8154 21 9.65892 21C9.58938 21 9.51983 20.9884 9.45029 20.9652C9.38074 20.942 9.31699 20.9073 9.25904 20.8609L6.16429 18.3312C6.031 18.2211 5.96435 18.0936 5.96435 17.9487C5.97015 17.8038 6.03679 17.6763 6.16429 17.5662L9.25904 15.0365C9.31699 14.9844 9.38074 14.9467 9.45029 14.9235C9.51983 14.9003 9.58938 14.8887 9.65892 14.8887C9.8154 14.8887 9.9371 14.9322 10.024 15.0191C10.111 15.1003 10.1544 15.2191 10.1544 15.3756V17.2967H16.4482C17.2132 17.2967 17.8189 17.0852 18.2651 16.6621C18.7171 16.2333 18.9432 15.6537 18.9432 14.9235V12.1498C18.9432 11.9644 19.004 11.8108 19.1257 11.6891C19.2532 11.5674 19.4097 11.5065 19.5951 11.5065Z" fill="#484F67" fill-opacity="0.7"/>
</svg>
