<svg width="24" height="24" viewBox="0 0 24 24" fill="none" xmlns="http://www.w3.org/2000/svg">
<path d="M20.6535 10.6837L4.85657 1.84307C4.59336 1.68958 4.29028 1.61828 3.98624 1.63832C3.68221 1.65837 3.3911 1.76885 3.15032 1.95557C2.90442 2.14958 2.72589 2.41613 2.64006 2.71736C2.55423 3.01859 2.56548 3.33921 2.6722 3.63369L5.30657 10.9931C5.33322 11.0664 5.38159 11.13 5.44523 11.1752C5.50886 11.2204 5.58476 11.2452 5.66282 11.2462H12.4316C12.6262 11.2431 12.8147 11.314 12.9592 11.4445C13.1036 11.575 13.1931 11.7554 13.2097 11.9493C13.2161 12.0517 13.2015 12.1543 13.1666 12.2507C13.1318 12.3472 13.0776 12.4355 13.0073 12.5102C12.937 12.5849 12.8522 12.6444 12.758 12.685C12.6638 12.7256 12.5623 12.7464 12.4597 12.7462H5.66282C5.58476 12.7472 5.50886 12.772 5.44523 12.8172C5.38159 12.8624 5.33322 12.9259 5.30657 12.9993L2.6722 20.3587C2.59315 20.5854 2.56934 20.8277 2.60272 21.0655C2.63611 21.3033 2.72574 21.5296 2.86416 21.7258C3.00259 21.922 3.18582 22.0823 3.39864 22.1935C3.61146 22.3046 3.84773 22.3634 4.08782 22.3649C4.34332 22.3638 4.59455 22.2994 4.81907 22.1774L20.6535 13.3087C20.8854 13.177 21.0783 12.9861 21.2126 12.7555C21.3468 12.525 21.4175 12.263 21.4175 11.9962C21.4175 11.7294 21.3468 11.4674 21.2126 11.2369C21.0783 11.0063 20.8854 10.8154 20.6535 10.6837Z" fill="#5046E5"/>
</svg>
