<svg width="16" height="16" viewBox="0 0 16 16" fill="none" xmlns="http://www.w3.org/2000/svg">
<path d="M2 8C2 8.16537 2.05939 8.30749 2.17818 8.42636C2.29697 8.54005 2.43641 8.5969 2.59651 8.5969H7.40736V13.4109C7.40736 13.5711 7.46417 13.708 7.57779 13.8217C7.69658 13.9406 7.83861 14 8.00387 14C8.16398 14 8.30084 13.9406 8.41446 13.8217C8.52808 13.708 8.58489 13.5711 8.58489 13.4109V8.5969H13.4112C13.5713 8.5969 13.7082 8.54005 13.8218 8.42636C13.9406 8.30749 14 8.16537 14 8C14 7.83979 13.9406 7.70284 13.8218 7.58915C13.7082 7.47028 13.5713 7.41085 13.4112 7.41085H8.58489V2.58915C8.58489 2.43411 8.52808 2.29716 8.41446 2.17829C8.30084 2.05943 8.16398 2 8.00387 2C7.83861 2 7.69658 2.05943 7.57779 2.17829C7.46417 2.29716 7.40736 2.43411 7.40736 2.58915V7.41085H2.59651C2.43641 7.41085 2.29697 7.47028 2.17818 7.58915C2.05939 7.70284 2 7.83979 2 8Z" fill="#5046E5"/>
</svg>
