<svg width="19" height="24" viewBox="0 0 19 24" fill="none" xmlns="http://www.w3.org/2000/svg">
<path d="M9.2502 22.5C9.2142 22.5 9.1782 22.496 9.1432 22.488C9.0592 22.47 0.75 20.547 0.75 11.4287V4.99958C0.75 4.79158 0.879003 4.60457 1.07401 4.53157L9.0742 1.5315C9.1872 1.4895 9.3122 1.4895 9.42621 1.5315L17.4264 4.53157C17.6214 4.60457 17.7504 4.79158 17.7504 4.99958V11.4287C17.7504 20.547 9.44121 22.471 9.35721 22.489C9.3222 22.496 9.2862 22.5 9.2502 22.5Z" fill="#5046E5" stroke="#5046E5" stroke-width="1.05"/>
<path d="M8.49112 17.2034C8.43508 17.2034 8.37839 17.1936 8.32366 17.174C8.10798 17.0949 7.97636 16.8767 8.00699 16.6494L8.53803 12.6303H6.48878C6.30503 12.6303 6.13627 12.5264 6.05287 12.3618C5.96946 12.1972 5.98575 11.9992 6.09457 11.8509L9.67831 6.9512C9.81189 6.76762 10.0543 6.69968 10.2621 6.78918C10.4706 6.87737 10.5918 7.09753 10.5547 7.32096L9.99824 10.6704H12.0273C12.2058 10.6704 12.37 10.7678 12.456 10.9252C12.5414 11.082 12.5349 11.2734 12.4391 11.4243L8.90292 16.9773C8.81105 17.1217 8.65401 17.2034 8.49112 17.2034Z" fill="white"/>
</svg>
