<svg width="32" height="32" viewBox="0 0 32 32" fill="none" xmlns="http://www.w3.org/2000/svg">
<path d="M8.18127 28H23.7697C25.3468 28 26.2516 27.1197 26.2516 25.5548V14.1844L27.9632 15.6271C28.1711 15.7983 28.3912 15.945 28.6601 15.945C29.1369 15.945 29.5037 15.6516 29.5037 15.187C29.5037 14.8813 29.4059 14.6857 29.1859 14.5023L26.2516 12.0204V7.22771C26.2516 6.77534 25.9581 6.48192 25.5058 6.48192H24.3565C23.9164 6.48192 23.6107 6.77534 23.6107 7.22771V9.80744L17.3142 4.5135C16.5195 3.82883 15.5292 3.82883 14.7223 4.5135L2.8262 14.5023C2.5939 14.6857 2.49609 14.918 2.49609 15.1625C2.49609 15.566 2.81397 15.945 3.35193 15.945C3.6209 15.945 3.84097 15.7983 4.04882 15.6271L5.71158 14.2333V25.5548C5.71158 27.1197 6.60409 28 8.18127 28ZM19.2949 18.488C19.2949 17.9868 18.9648 17.6689 18.4635 17.6689H13.5363C13.0351 17.6689 12.705 17.9868 12.705 18.488V26.3984H8.5236C7.71667 26.3984 7.30098 25.9827 7.30098 25.1635V12.9007L15.5781 5.95619C15.8471 5.71167 16.165 5.69944 16.4584 5.95619L24.6499 12.8395V25.1635C24.6499 25.9827 24.2465 26.3984 23.4395 26.3984H19.2949V18.488Z" fill="#484F67"/>
</svg>
