<svg width="32" height="32" viewBox="0 0 32 32" fill="none" xmlns="http://www.w3.org/2000/svg">
<path d="M15.3215 22.9378C15.2468 22.9378 15.1712 22.9248 15.0982 22.8986C14.8106 22.7932 14.6351 22.5023 14.676 22.1992L15.384 16.8404H12.6517C12.4067 16.8404 12.1817 16.7019 12.0705 16.4824C11.9593 16.2629 11.981 15.999 12.1261 15.8012L16.9044 9.26826C17.0825 9.02349 17.4057 8.9329 17.6828 9.05224C17.9609 9.16983 18.1225 9.46338 18.0729 9.76128L17.331 14.2272H20.0364C20.2744 14.2272 20.4934 14.357 20.6081 14.5669C20.7219 14.776 20.7132 15.0312 20.5855 15.2324L15.8706 22.6364C15.7481 22.8289 15.5387 22.9378 15.3215 22.9378Z" fill="#484F67"/>
<path d="M16.3336 30C16.2856 30 16.2376 29.9947 16.1909 29.984C16.0789 29.96 5 27.3959 5 15.2383V6.66611C5 6.38877 5.172 6.13943 5.43201 6.0421L16.0989 2.042C16.2496 1.986 16.4163 1.986 16.5683 2.042L27.2352 6.0421C27.4952 6.13943 27.6672 6.38877 27.6672 6.66611V15.2383C27.6672 27.3959 16.5883 29.9613 16.4763 29.9853C16.4296 29.9947 16.3816 30 16.3336 30V30Z" stroke="#484F67" stroke-width="1.4"/>
</svg>
