<svg width="24" height="24" viewBox="0 0 24 24" fill="none" xmlns="http://www.w3.org/2000/svg">
<path d="M12.2502 22.5C12.2142 22.5 12.1782 22.496 12.1432 22.488C12.0592 22.47 3.75 20.547 3.75 11.4287V4.99958C3.75 4.79158 3.879 4.60457 4.07401 4.53157L12.0742 1.5315C12.1872 1.4895 12.3122 1.4895 12.4262 1.5315L20.4264 4.53157C20.6214 4.60457 20.7504 4.79158 20.7504 4.99958V11.4287C20.7504 20.547 12.4412 22.471 12.3572 22.489C12.3222 22.496 12.2862 22.5 12.2502 22.5Z" fill="#9B9B9B" stroke="#9B9B9B" stroke-width="1.05"/>
<path d="M11.4911 17.2034C11.4351 17.2034 11.3784 17.1936 11.3237 17.174C11.108 17.0949 10.9764 16.8767 11.007 16.6494L11.538 12.6303H9.48878C9.30503 12.6303 9.13627 12.5264 9.05287 12.3618C8.96946 12.1972 8.98575 11.9992 9.09457 11.8509L12.6783 6.9512C12.8119 6.76762 13.0543 6.69968 13.2621 6.78918C13.4706 6.87737 13.5918 7.09753 13.5547 7.32096L12.9982 10.6704H15.0273C15.2058 10.6704 15.37 10.7678 15.456 10.9252C15.5414 11.082 15.5349 11.2734 15.4391 11.4243L11.9029 16.9773C11.811 17.1217 11.654 17.2034 11.4911 17.2034Z" fill="white"/>
</svg>
