<svg width="24" height="24" viewBox="0 0 24 24" fill="none" xmlns="http://www.w3.org/2000/svg">
<path d="M4 12C4 12.2205 4.07919 12.41 4.23757 12.5685C4.39595 12.7201 4.58188 12.7959 4.79535 12.7959H11.2098V19.2145C11.2098 19.4281 11.2856 19.6107 11.4371 19.7623C11.5954 19.9208 11.7848 20 12.0052 20C12.2186 20 12.4011 19.9208 12.5526 19.7623C12.7041 19.6107 12.7799 19.4281 12.7799 19.2145V12.7959H19.215C19.4284 12.7959 19.6109 12.7201 19.7624 12.5685C19.9208 12.41 20 12.2205 20 12C20 11.7864 19.9208 11.6038 19.7624 11.4522C19.6109 11.2937 19.4284 11.2145 19.215 11.2145H12.7799V4.78553C12.7799 4.57881 12.7041 4.39621 12.5526 4.23773C12.4011 4.07924 12.2186 4 12.0052 4C11.7848 4 11.5954 4.07924 11.4371 4.23773C11.2856 4.39621 11.2098 4.57881 11.2098 4.78553V11.2145H4.79535C4.58188 11.2145 4.39595 11.2937 4.23757 11.4522C4.07919 11.6038 4 11.7864 4 12Z" fill="#5046E5"/>
</svg>
