<svg width="17" height="18" viewBox="0 0 17 18" fill="none" xmlns="http://www.w3.org/2000/svg">
<path d="M12.0672 6.68281C12.1253 6.74086 12.1714 6.80979 12.2029 6.88566C12.2343 6.96154 12.2505 7.04287 12.2505 7.125C12.2505 7.20714 12.2343 7.28846 12.2029 7.36434C12.1714 7.44021 12.1253 7.50914 12.0672 7.56719L7.69219 11.9422C7.63415 12.0003 7.56522 12.0464 7.48934 12.0779C7.41347 12.1093 7.33214 12.1255 7.25 12.1255C7.16787 12.1255 7.08654 12.1093 7.01067 12.0779C6.93479 12.0464 6.86586 12.0003 6.80782 11.9422L4.93282 10.0672C4.81554 9.94991 4.74966 9.79085 4.74966 9.625C4.74966 9.45915 4.81554 9.30009 4.93282 9.18281C5.05009 9.06554 5.20915 8.99965 5.375 8.99965C5.54086 8.99965 5.69992 9.06554 5.81719 9.18281L7.25 10.6164L11.1828 6.68281C11.2409 6.6247 11.3098 6.5786 11.3857 6.54715C11.4615 6.5157 11.5429 6.49951 11.625 6.49951C11.7071 6.49951 11.7885 6.5157 11.8643 6.54715C11.9402 6.5786 12.0091 6.6247 12.0672 6.68281ZM16.625 9C16.625 10.607 16.1485 12.1779 15.2557 13.514C14.3629 14.8502 13.094 15.8916 11.6093 16.5065C10.1247 17.1215 8.49099 17.2824 6.9149 16.9689C5.3388 16.6554 3.89106 15.8815 2.75476 14.7452C1.61846 13.6089 0.844628 12.1612 0.531123 10.5851C0.217618 9.00901 0.37852 7.37535 0.993482 5.8907C1.60844 4.40605 2.64985 3.1371 3.986 2.24431C5.32214 1.35152 6.89303 0.875 8.5 0.875C10.6542 0.877275 12.7195 1.73403 14.2427 3.25727C15.766 4.78051 16.6227 6.84581 16.625 9ZM15.375 9C15.375 7.64025 14.9718 6.31104 14.2164 5.18045C13.4609 4.04987 12.3872 3.16868 11.131 2.64833C9.87471 2.12798 8.49238 1.99183 7.15876 2.2571C5.82514 2.52237 4.60013 3.17716 3.63864 4.13864C2.67716 5.10013 2.02238 6.32513 1.7571 7.65875C1.49183 8.99237 1.62798 10.3747 2.14833 11.6309C2.66868 12.8872 3.54987 13.9609 4.68046 14.7164C5.81105 15.4718 7.14026 15.875 8.5 15.875C10.3227 15.8729 12.0702 15.1479 13.3591 13.8591C14.6479 12.5702 15.3729 10.8227 15.375 9Z" fill="white"/>
</svg>
