<svg width="25" height="24" viewBox="0 0 25 24" fill="none" xmlns="http://www.w3.org/2000/svg">
<path d="M12.8778 17.299L17.9403 12.2365C19.184 10.9865 19.3653 8.94276 18.1903 7.63651C17.8956 7.30733 17.5369 7.04169 17.1361 6.85581C16.7353 6.66994 16.3008 6.56774 15.8592 6.55546C15.4175 6.54317 14.978 6.62106 14.5675 6.78437C14.157 6.94768 13.7841 7.19297 13.4715 7.50526L12.5215 8.46151L11.7028 7.63651C10.4528 6.39276 8.40905 6.21151 7.1028 7.38651C6.77362 7.68119 6.50797 8.03989 6.3221 8.4407C6.13623 8.84151 6.03403 9.276 6.02174 9.71764C6.00946 10.1593 6.08735 10.5988 6.25066 11.0093C6.41396 11.4198 6.65926 11.7927 6.97155 12.1053L12.1653 17.299C12.2601 17.3929 12.3881 17.4456 12.5215 17.4456C12.655 17.4456 12.783 17.3929 12.8778 17.299Z" fill="#FB1609" stroke="#FB1609" stroke-width="1.2" stroke-linecap="round" stroke-linejoin="round"/>
</svg>
