<svg width="21" height="20" viewBox="0 0 21 20" fill="none" xmlns="http://www.w3.org/2000/svg">
<path d="M10.5029 12.7686C10.585 12.7686 10.6631 12.7529 10.7373 12.7217C10.8115 12.6865 10.8779 12.6357 10.9365 12.5693L15.1963 8.22168C15.3096 8.10449 15.3662 7.96777 15.3662 7.81152C15.3662 7.70215 15.3408 7.60449 15.29 7.51855C15.2393 7.42871 15.1689 7.3584 15.0791 7.30762C14.9932 7.25684 14.8955 7.23145 14.7861 7.23145C14.6299 7.23145 14.4893 7.28809 14.3643 7.40137L10.2158 11.6553H10.7842L6.62988 7.40137C6.5127 7.28809 6.37402 7.23145 6.21387 7.23145C6.10449 7.23145 6.00488 7.25684 5.91504 7.30762C5.8291 7.3584 5.76074 7.42871 5.70996 7.51855C5.65918 7.60449 5.63379 7.70215 5.63379 7.81152C5.63379 7.89355 5.64941 7.96973 5.68066 8.04004C5.71191 8.10645 5.75293 8.16699 5.80371 8.22168L10.0576 12.5752C10.1904 12.7041 10.3389 12.7686 10.5029 12.7686Z" fill="#484F67" fill-opacity="0.5"/>
</svg>
