<svg width="25" height="24" viewBox="0 0 25 24" fill="none" xmlns="http://www.w3.org/2000/svg">
<path d="M13.034 19.8662L20.6278 12.2725C22.4934 10.3975 22.7653 7.33187 21.0028 5.37249C20.5607 4.87872 20.0227 4.48026 19.4215 4.20145C18.8203 3.92264 18.1685 3.76933 17.5061 3.75091C16.8436 3.73248 16.1844 3.84932 15.5686 4.09428C14.9528 4.33924 14.3934 4.70718 13.9246 5.17562L12.4996 6.60999L11.2715 5.37249C9.39652 3.50687 6.33089 3.23499 4.37152 4.99749C3.87774 5.43951 3.47928 5.97756 3.20047 6.57877C2.92166 7.17999 2.76836 7.83173 2.74993 8.49419C2.73151 9.15665 2.84834 9.81591 3.0933 10.4317C3.33826 11.0475 3.7062 11.6068 4.17464 12.0756L11.9653 19.8662C12.1075 20.0071 12.2995 20.0861 12.4996 20.0861C12.6998 20.0861 12.8918 20.0071 13.034 19.8662Z" fill="#FB1609" stroke="#FB1609" stroke-width="1.2" stroke-linecap="round" stroke-linejoin="round"/>
</svg>
