<svg width="15" height="14" viewBox="0 0 15 14" fill="none" xmlns="http://www.w3.org/2000/svg">
<path d="M7.48231 12.299L12.5448 7.23651C13.7886 5.98651 13.9698 3.94276 12.7948 2.63651C12.5001 2.30733 12.1414 2.04169 11.7406 1.85581C11.3398 1.66994 10.9053 1.56774 10.4637 1.55546C10.022 1.54317 9.58254 1.62106 9.17202 1.78437C8.7615 1.94768 8.38858 2.19297 8.07606 2.50526L7.12606 3.46151L6.30731 2.63651C5.05731 1.39276 3.01356 1.21151 1.70731 2.38651C1.37813 2.68119 1.11249 3.03989 0.926615 3.4407C0.740742 3.84151 0.638541 4.276 0.626257 4.71764C0.613973 5.15928 0.691864 5.59879 0.85517 6.00931C1.01848 6.41983 1.26377 6.79274 1.57606 7.10526L6.76981 12.299C6.86461 12.3929 6.99264 12.4456 7.12606 12.4456C7.25949 12.4456 7.38752 12.3929 7.48231 12.299Z" stroke="#484F67" stroke-opacity="0.5" stroke-width="1.2" stroke-linecap="round" stroke-linejoin="round"/>
</svg>
