<svg width="24" height="19" viewBox="0 0 24 19" fill="none" xmlns="http://www.w3.org/2000/svg">
<path d="M22.8356 3.82875L18.4959 1.65938C17.9569 0.67875 16.6134 0 15 0C12.8972 0 11.25 1.15313 11.25 2.625C11.2502 2.83306 11.2838 3.03974 11.3494 3.23719L9.51937 4.15219C8.88116 3.88041 8.19365 3.74348 7.5 3.75C5.39719 3.75 3.75 4.90312 3.75 6.375C3.75021 6.58306 3.78376 6.78974 3.84938 6.98719L1.16438 8.32875C1.03977 8.3911 0.934999 8.48693 0.861808 8.6055C0.788617 8.72406 0.7499 8.86067 0.75 9V15C0.7499 15.1393 0.788617 15.2759 0.861808 15.3945C0.934999 15.5131 1.03977 15.6089 1.16438 15.6713L7.16437 18.6712C7.26857 18.7234 7.38348 18.7505 7.5 18.7505C7.61652 18.7505 7.73143 18.7234 7.83563 18.6712L22.8356 11.1713C22.9602 11.1089 23.065 11.0131 23.1382 10.8945C23.2114 10.7759 23.2501 10.6393 23.25 10.5V4.5C23.2501 4.36067 23.2114 4.22406 23.1382 4.10549C23.065 3.98693 22.9602 3.8911 22.8356 3.82875ZM7.5 11.1619L3.17719 9L4.78125 8.19844C5.46 8.69438 6.42 9 7.5 9C9.60281 9 11.25 7.84688 11.25 6.375C11.2464 5.93929 11.1035 5.51615 10.8422 5.1675L12.2812 4.44844C12.96 4.94437 13.92 5.25 15 5.25C16.7231 5.25 18.1397 4.47563 18.5953 3.38625L20.8228 4.5L7.5 11.1619ZM15 1.5C16.2881 1.5 17.25 2.09438 17.25 2.625C17.25 3.15562 16.2881 3.75 15 3.75C13.7119 3.75 12.75 3.15562 12.75 2.625C12.75 2.09438 13.7119 1.5 15 1.5ZM7.5 5.25C8.78813 5.25 9.75 5.84438 9.75 6.375C9.75 6.90562 8.78813 7.5 7.5 7.5C6.59344 7.5 5.84906 7.20563 5.48719 6.84375C5.46318 6.81274 5.43685 6.7836 5.40844 6.75656C5.3136 6.6512 5.25769 6.51655 5.25 6.375C5.25 5.84438 6.21187 5.25 7.5 5.25ZM2.25 10.2131L6.75 12.4631V16.7869L2.25 14.5369V10.2131ZM8.25 16.7869V12.4631L21.75 5.71313V10.0369L8.25 16.7869Z" fill="black"/>
</svg>
