<svg width="35" height="22" viewBox="0 0 35 22" fill="none" xmlns="http://www.w3.org/2000/svg">
<path d="M33.25 7.43016V2.625C33.25 2.02826 33.0129 1.45597 32.591 1.03401C32.169 0.612053 31.5967 0.375 31 0.375H4C3.40326 0.375 2.83097 0.612053 2.40901 1.03401C1.98705 1.45597 1.75 2.02826 1.75 2.625V7.43016C1.4085 7.62732 1.12482 7.91077 0.92737 8.2521C0.729924 8.59344 0.625651 8.98067 0.625 9.375V16.125C0.625 16.7217 0.862053 17.294 1.28401 17.716C1.70597 18.1379 2.27826 18.375 2.875 18.375H4V20.625C4 20.9234 4.11853 21.2095 4.3295 21.4205C4.54048 21.6315 4.82663 21.75 5.125 21.75C5.42337 21.75 5.70952 21.6315 5.9205 21.4205C6.13147 21.2095 6.25 20.9234 6.25 20.625V18.375H28.75V20.625C28.75 20.9234 28.8685 21.2095 29.0795 21.4205C29.2905 21.6315 29.5766 21.75 29.875 21.75C30.1734 21.75 30.4595 21.6315 30.6705 21.4205C30.8815 21.2095 31 20.9234 31 20.625V18.375H32.125C32.7217 18.375 33.294 18.1379 33.716 17.716C34.1379 17.294 34.375 16.7217 34.375 16.125V9.375C34.3743 8.98067 34.2701 8.59344 34.0726 8.2521C33.8752 7.91077 33.5915 7.62732 33.25 7.43016ZM31 7.125H29.875C29.2783 7.125 28.706 7.36205 28.284 7.78401C27.8621 8.20597 27.625 8.77826 27.625 9.375V11.625H18.625V2.625H31V7.125ZM16.375 2.625V11.625H7.375V9.375C7.375 8.77826 7.13795 8.20597 6.71599 7.78401C6.29403 7.36205 5.72174 7.125 5.125 7.125H4V2.625H16.375ZM32.125 16.125H2.875V9.375H5.125V12.75C5.125 13.0484 5.24353 13.3345 5.4545 13.5455C5.66548 13.7565 5.95163 13.875 6.25 13.875H28.75C29.0484 13.875 29.3345 13.7565 29.5455 13.5455C29.7565 13.3345 29.875 13.0484 29.875 12.75V9.375H32.125V16.125Z" fill="black"/>
</svg>
