<svg width="36" height="36" viewBox="0 0 36 36" fill="none" xmlns="http://www.w3.org/2000/svg">
<rect x="0.5" y="0.5" width="35" height="35" rx="17.5" stroke="#484F67"/>
<path d="M25.7588 21.3838L24.3571 19.9823C23.8884 19.5134 23.625 18.8775 23.625 18.2145V15.0676C23.625 12.3677 21.7863 9.98273 19.2354 9.3948C19.2409 9.34676 19.25 9.29961 19.25 9.25C19.25 8.5609 18.6891 8 18 8C17.3109 8 16.75 8.5609 16.75 9.25C16.75 9.29883 16.7589 9.34508 16.7643 9.39238C14.2534 9.95617 12.375 12.1937 12.375 14.875V18.2145C12.375 18.8775 12.1116 19.5134 11.6429 19.9823L10.2412 21.3838C10.0068 21.6183 9.875 21.9362 9.875 22.2677V23.625H26.125V22.2677C26.125 21.9362 25.9932 21.6183 25.7588 21.3838Z" fill="#333333"/>
<path d="M15.5 25.5C15.5 26.8806 16.6194 28 18 28C19.3806 28 20.5 26.8806 20.5 25.5V24.875H15.5V25.5Z" fill="#333333"/>
</svg>
