<svg width="22" height="22" viewBox="0 0 22 22" fill="none" xmlns="http://www.w3.org/2000/svg">
<path opacity="0.9" fill-rule="evenodd" clip-rule="evenodd" d="M11 0.5C5.20101 0.5 0.5 5.20101 0.5 11C0.5 16.799 5.20101 21.5 11 21.5C16.799 21.5 21.5 16.799 21.5 11C21.5 5.20101 16.799 0.5 11 0.5ZM1.5 11C1.5 5.7533 5.75329 1.5 11 1.5C16.2467 1.5 20.5 5.7533 20.5 11C20.5 16.2467 16.2467 20.5 11 20.5C5.75329 20.5 1.5 16.2467 1.5 11ZM6.20209 11.0355C6.20209 10.7191 6.45861 10.4626 6.77503 10.4626H10.5131V6.72452C10.5131 6.40809 10.7696 6.15157 11.0861 6.15157C11.4025 6.15157 11.659 6.40809 11.659 6.72452V10.4626H15.2546C15.571 10.4626 15.8275 10.7191 15.8275 11.0355C15.8275 11.3519 15.571 11.6084 15.2546 11.6084H11.659V15.2041C11.659 15.5205 11.4025 15.777 11.0861 15.777C10.7696 15.777 10.5131 15.5205 10.5131 15.2041V11.6084L6.77503 11.6084C6.45861 11.6084 6.20209 11.3519 6.20209 11.0355Z" fill="#5046E5"/>
</svg>
