<svg width="25" height="24" viewBox="0 0 25 24" fill="none" xmlns="http://www.w3.org/2000/svg">
<path d="M12.5049 21.1455C13.7549 21.1455 14.93 20.9046 16.0303 20.4229C17.137 19.9476 18.1104 19.29 18.9502 18.4502C19.7965 17.6104 20.4574 16.6403 20.9326 15.54C21.4079 14.4333 21.6455 13.2516 21.6455 11.9951C21.6455 10.7451 21.4079 9.56999 20.9326 8.46973C20.4574 7.36296 19.7965 6.38965 18.9502 5.5498C18.1104 4.70345 17.137 4.04264 16.0303 3.56738C14.93 3.09212 13.7516 2.85449 12.4951 2.85449C11.2451 2.85449 10.0667 3.09212 8.95996 3.56738C7.8597 4.04264 6.88639 4.70345 6.04004 5.5498C5.2002 6.38965 4.54264 7.36296 4.06738 8.46973C3.59212 9.56999 3.35449 10.7451 3.35449 11.9951C3.35449 13.2516 3.59212 14.4333 4.06738 15.54C4.54915 16.6403 5.20996 17.6104 6.0498 18.4502C6.88965 19.29 7.8597 19.9476 8.95996 20.4229C10.0667 20.9046 11.2484 21.1455 12.5049 21.1455ZM12.5049 20.1787C11.3721 20.1787 10.3109 19.9671 9.32129 19.5439C8.33171 19.1208 7.46256 18.5348 6.71387 17.7861C5.96517 17.0374 5.37923 16.1683 4.95605 15.1787C4.53939 14.1891 4.33105 13.1279 4.33105 11.9951C4.33105 10.8688 4.53939 9.81087 4.95605 8.82129C5.37923 7.83171 5.96517 6.96256 6.71387 6.21387C7.46256 5.46517 8.33171 4.87923 9.32129 4.45605C10.3109 4.03288 11.3688 3.82129 12.4951 3.82129C13.6279 3.82129 14.6891 4.03288 15.6787 4.45605C16.6683 4.87923 17.5374 5.46517 18.2861 6.21387C19.0348 6.96256 19.6208 7.83171 20.0439 8.82129C20.4671 9.81087 20.6787 10.8688 20.6787 11.9951C20.6852 13.1279 20.4736 14.1891 20.0439 15.1787C19.6208 16.1683 19.0348 17.0374 18.2861 17.7861C17.5439 18.5348 16.6781 19.1208 15.6885 19.5439C14.6989 19.9671 13.6377 20.1787 12.5049 20.1787ZM12.3291 13.8604C12.4723 13.8604 12.5863 13.818 12.6709 13.7334C12.7555 13.6488 12.7979 13.5446 12.7979 13.4209C12.7979 13.3818 12.7979 13.3428 12.7979 13.3037C12.7979 13.2646 12.7979 13.2256 12.7979 13.1865C12.7979 12.9066 12.8727 12.6657 13.0225 12.4639C13.1722 12.262 13.4229 12.0439 13.7744 11.8096C14.2432 11.4906 14.5947 11.1748 14.8291 10.8623C15.0635 10.5498 15.1807 10.1559 15.1807 9.68066C15.1807 9.25098 15.0635 8.87988 14.8291 8.56738C14.6012 8.25488 14.2887 8.01074 13.8916 7.83496C13.4945 7.65918 13.0485 7.57129 12.5537 7.57129C11.8115 7.57129 11.2126 7.74707 10.7568 8.09863C10.3011 8.44369 10.0309 8.84408 9.94629 9.2998C9.92676 9.36491 9.91374 9.42676 9.90723 9.48535C9.90072 9.54395 9.89746 9.60905 9.89746 9.68066C9.89746 9.81738 9.93978 9.9248 10.0244 10.0029C10.109 10.0745 10.2067 10.1104 10.3174 10.1104C10.4281 10.1104 10.5192 10.0843 10.5908 10.0322C10.6624 9.98014 10.7178 9.90853 10.7568 9.81738L10.835 9.66113C10.9066 9.32259 11.0921 9.02637 11.3916 8.77246C11.6976 8.51855 12.0719 8.3916 12.5146 8.3916C13.0225 8.3916 13.4261 8.51855 13.7256 8.77246C14.0316 9.01986 14.1846 9.34212 14.1846 9.73926C14.1846 10.0518 14.0902 10.3219 13.9014 10.5498C13.7126 10.7712 13.4033 11.0348 12.9736 11.3408C12.609 11.5947 12.3324 11.8551 12.1436 12.1221C11.9548 12.389 11.8604 12.7243 11.8604 13.1279C11.8604 13.1735 11.8604 13.2191 11.8604 13.2646C11.8604 13.3037 11.8604 13.346 11.8604 13.3916C11.8604 13.7041 12.0166 13.8604 12.3291 13.8604ZM12.3193 16.4189C12.5277 16.4189 12.7067 16.3441 12.8564 16.1943C13.0127 16.0446 13.0908 15.8688 13.0908 15.667C13.0908 15.4521 13.0127 15.2731 12.8564 15.1299C12.7067 14.9801 12.5277 14.9053 12.3193 14.9053C12.1045 14.9053 11.9222 14.9801 11.7725 15.1299C11.6227 15.2796 11.5479 15.4587 11.5479 15.667C11.5479 15.8688 11.6227 16.0446 11.7725 16.1943C11.9222 16.3441 12.1045 16.4189 12.3193 16.4189Z" fill="#333333"/>
</svg>
