<svg width="17" height="18" viewBox="0 0 17 18" fill="none" xmlns="http://www.w3.org/2000/svg">
<path d="M12.25 9C12.25 9.16576 12.1842 9.32473 12.0669 9.44194C11.9497 9.55915 11.7908 9.625 11.625 9.625H5.375C5.20924 9.625 5.05027 9.55915 4.93306 9.44194C4.81585 9.32473 4.75 9.16576 4.75 9C4.75 8.83424 4.81585 8.67527 4.93306 8.55806C5.05027 8.44085 5.20924 8.375 5.375 8.375H11.625C11.7908 8.375 11.9497 8.44085 12.0669 8.55806C12.1842 8.67527 12.25 8.83424 12.25 9ZM16.625 9C16.625 10.607 16.1485 12.1779 15.2557 13.514C14.3629 14.8502 13.094 15.8916 11.6093 16.5065C10.1247 17.1215 8.49099 17.2824 6.9149 16.9689C5.3388 16.6554 3.89106 15.8815 2.75476 14.7452C1.61846 13.6089 0.844628 12.1612 0.531123 10.5851C0.217618 9.00901 0.37852 7.37535 0.993482 5.8907C1.60844 4.40605 2.64985 3.1371 3.986 2.24431C5.32214 1.35152 6.89303 0.875 8.5 0.875C10.6542 0.877275 12.7195 1.73403 14.2427 3.25727C15.766 4.78051 16.6227 6.84581 16.625 9ZM15.375 9C15.375 7.64025 14.9718 6.31104 14.2164 5.18045C13.4609 4.04987 12.3872 3.16868 11.131 2.64833C9.87471 2.12798 8.49238 1.99183 7.15876 2.2571C5.82514 2.52237 4.60013 3.17716 3.63864 4.13864C2.67716 5.10013 2.02238 6.32513 1.7571 7.65875C1.49183 8.99237 1.62798 10.3747 2.14833 11.6309C2.66868 12.8872 3.54987 13.9609 4.68046 14.7164C5.81105 15.4718 7.14026 15.875 8.5 15.875C10.3227 15.8729 12.0702 15.1479 13.3591 13.8591C14.6479 12.5702 15.3729 10.8227 15.375 9Z" fill="#101828"/>
<path d="M12.25 9C12.25 9.16576 12.1842 9.32473 12.0669 9.44194C11.9497 9.55915 11.7908 9.625 11.625 9.625H5.375C5.20924 9.625 5.05027 9.55915 4.93306 9.44194C4.81585 9.32473 4.75 9.16576 4.75 9C4.75 8.83424 4.81585 8.67527 4.93306 8.55806C5.05027 8.44085 5.20924 8.375 5.375 8.375H11.625C11.7908 8.375 11.9497 8.44085 12.0669 8.55806C12.1842 8.67527 12.25 8.83424 12.25 9ZM16.625 9C16.625 10.607 16.1485 12.1779 15.2557 13.514C14.3629 14.8502 13.094 15.8916 11.6093 16.5065C10.1247 17.1215 8.49099 17.2824 6.9149 16.9689C5.3388 16.6554 3.89106 15.8815 2.75476 14.7452C1.61846 13.6089 0.844628 12.1612 0.531123 10.5851C0.217618 9.00901 0.37852 7.37535 0.993482 5.8907C1.60844 4.40605 2.64985 3.1371 3.986 2.24431C5.32214 1.35152 6.89303 0.875 8.5 0.875C10.6542 0.877275 12.7195 1.73403 14.2427 3.25727C15.766 4.78051 16.6227 6.84581 16.625 9ZM15.375 9C15.375 7.64025 14.9718 6.31104 14.2164 5.18045C13.4609 4.04987 12.3872 3.16868 11.131 2.64833C9.87471 2.12798 8.49238 1.99183 7.15876 2.2571C5.82514 2.52237 4.60013 3.17716 3.63864 4.13864C2.67716 5.10013 2.02238 6.32513 1.7571 7.65875C1.49183 8.99237 1.62798 10.3747 2.14833 11.6309C2.66868 12.8872 3.54987 13.9609 4.68046 14.7164C5.81105 15.4718 7.14026 15.875 8.5 15.875C10.3227 15.8729 12.0702 15.1479 13.3591 13.8591C14.6479 12.5702 15.3729 10.8227 15.375 9Z" fill="white" fill-opacity="0.1"/>
</svg>
