<svg width="22" height="22" viewBox="0 0 22 22" fill="none" xmlns="http://www.w3.org/2000/svg">
<circle cx="11" cy="11" r="10" fill="white" stroke="#484F67"/>
<path fill-rule="evenodd" clip-rule="evenodd" d="M11.5714 11.0002L14.4284 8.14324L13.857 7.57184L11 10.4288L8.143 7.57184L7.5716 8.14324L10.4286 11.0002L7.5716 13.8572L8.143 14.4286L11 11.5716L13.857 14.4286L14.4284 13.8572L11.5714 11.0002Z" fill="#484F67"/>
<path d="M14.4284 8.14324L14.7819 8.49679L15.1355 8.14324L14.7819 7.78969L14.4284 8.14324ZM11.5714 11.0002L11.2178 10.6467L10.8643 11.0002L11.2178 11.3538L11.5714 11.0002ZM13.857 7.57184L14.2106 7.21829L13.857 6.86473L13.5034 7.21829L13.857 7.57184ZM11 10.4288L10.6464 10.7824L11 11.1359L11.3536 10.7824L11 10.4288ZM8.143 7.57184L8.49656 7.21829L8.143 6.86473L7.78945 7.21829L8.143 7.57184ZM7.5716 8.14324L7.21805 7.78969L6.8645 8.14324L7.21805 8.49679L7.5716 8.14324ZM10.4286 11.0002L10.7822 11.3538L11.1357 11.0002L10.7822 10.6467L10.4286 11.0002ZM7.5716 13.8572L7.21805 13.5037L6.8645 13.8572L7.21805 14.2108L7.5716 13.8572ZM8.143 14.4286L7.78945 14.7822L8.143 15.1357L8.49656 14.7822L8.143 14.4286ZM11 11.5716L11.3536 11.2181L11 10.8645L10.6464 11.2181L11 11.5716ZM13.857 14.4286L13.5034 14.7822L13.857 15.1357L14.2105 14.7822L13.857 14.4286ZM14.4284 13.8572L14.7819 14.2108L15.1355 13.8572L14.7819 13.5037L14.4284 13.8572ZM14.0748 7.78969L11.2178 10.6467L11.925 11.3538L14.7819 8.49679L14.0748 7.78969ZM13.5034 7.92539L14.0748 8.49679L14.7819 7.78969L14.2106 7.21829L13.5034 7.92539ZM11.3536 10.7824L14.2106 7.92539L13.5034 7.21829L10.6464 10.0753L11.3536 10.7824ZM7.78945 7.92539L10.6464 10.7824L11.3536 10.0753L8.49656 7.21829L7.78945 7.92539ZM7.92516 8.49679L8.49656 7.92539L7.78945 7.21829L7.21805 7.78969L7.92516 8.49679ZM10.7822 10.6467L7.92516 7.78969L7.21805 8.49679L10.075 11.3538L10.7822 10.6467ZM7.92516 14.2108L10.7822 11.3538L10.075 10.6467L7.21805 13.5037L7.92516 14.2108ZM8.49656 14.0751L7.92516 13.5037L7.21805 14.2108L7.78945 14.7822L8.49656 14.0751ZM10.6464 11.2181L7.78945 14.0751L8.49656 14.7822L11.3536 11.9252L10.6464 11.2181ZM14.2105 14.0751L11.3536 11.2181L10.6464 11.9252L13.5034 14.7822L14.2105 14.0751ZM14.0748 13.5037L13.5034 14.0751L14.2105 14.7822L14.7819 14.2108L14.0748 13.5037ZM11.2178 11.3538L14.0748 14.2108L14.7819 13.5037L11.925 10.6467L11.2178 11.3538Z" fill="#484F67"/>
</svg>
