<svg width="13" height="12" viewBox="0 0 13 12" fill="none" xmlns="http://www.w3.org/2000/svg">
<path d="M13 1.50041V4.50041C13 4.63302 12.9473 4.7602 12.8535 4.85397C12.7598 4.94774 12.6326 5.00041 12.5 5.00041H9.5C9.36739 5.00041 9.24021 4.94774 9.14644 4.85397C9.05267 4.7602 9 4.63302 9 4.50041C9 4.36781 9.05267 4.24063 9.14644 4.14686C9.24021 4.05309 9.36739 4.00041 9.5 4.00041H11.2125L9.55062 2.47791L9.535 2.46291C8.84004 1.76822 7.95579 1.2937 6.99272 1.09863C6.02964 0.903562 5.03044 0.996593 4.11993 1.3661C3.20942 1.73561 2.42797 2.36522 1.87321 3.17627C1.31844 3.98732 1.01496 4.94385 1.00066 5.92638C0.986364 6.90891 1.26189 7.87387 1.79283 8.70071C2.32376 9.52756 3.08656 10.1796 3.98594 10.5755C4.88531 10.9713 5.88138 11.0934 6.84973 10.9264C7.81807 10.7594 8.71575 10.3108 9.43062 9.63666C9.52701 9.5455 9.65567 9.49635 9.78829 9.50004C9.92091 9.50374 10.0466 9.55996 10.1378 9.65635C10.229 9.75274 10.2781 9.8814 10.2744 10.014C10.2707 10.1466 10.2145 10.2724 10.1181 10.3635C9.00654 11.4177 7.53197 12.0039 6 12.0004H5.9175C4.93483 11.987 3.97052 11.7323 3.10931 11.2589C2.2481 10.7855 1.51636 10.1078 0.978406 9.28533C0.440454 8.46288 0.112758 7.52089 0.02412 6.54214C-0.0645179 5.56339 0.0886164 4.57785 0.470063 3.67214C0.85151 2.76643 1.44959 1.96828 2.21174 1.34785C2.97389 0.727414 3.87677 0.303687 4.84103 0.11391C5.80528 -0.0758664 6.8014 -0.0258826 7.74182 0.259468C8.68223 0.544819 9.53816 1.0568 10.2344 1.75041L12 3.36291V1.50041C12 1.36781 12.0527 1.24063 12.1464 1.14686C12.2402 1.05309 12.3674 1.00041 12.5 1.00041C12.6326 1.00041 12.7598 1.05309 12.8535 1.14686C12.9473 1.24063 13 1.36781 13 1.50041Z" fill="#F04438"/>
</svg>
