<svg width="22" height="22" viewBox="0 0 22 22" fill="none" xmlns="http://www.w3.org/2000/svg">
<circle cx="11" cy="11" r="10" fill="#5046E5" stroke="#5046E5"/>
<path fill-rule="evenodd" clip-rule="evenodd" d="M10.1289 14.1402L16.3193 7.94988L15.7479 7.37848L9.55754 13.5688L6.70054 10.7118L6.12914 11.2832L9.66467 14.8187L10.2361 14.2473L10.1289 14.1402Z" fill="white"/>
<path d="M16.3193 7.94988L16.6728 8.30343L17.0264 7.94988L16.6728 7.59633L16.3193 7.94988ZM10.1289 14.1402L9.77538 13.7867L9.42183 14.1402L9.77538 14.4938L10.1289 14.1402ZM15.7479 7.37848L16.1014 7.02493L15.7479 6.67137L15.3943 7.02493L15.7479 7.37848ZM9.55754 13.5688L9.20398 13.9224L9.55754 14.2759L9.91109 13.9224L9.55754 13.5688ZM6.70054 10.7118L7.05409 10.3583L6.70054 10.0047L6.34699 10.3583L6.70054 10.7118ZM6.12914 11.2832L5.77559 10.9297L5.42203 11.2832L5.77559 11.6368L6.12914 11.2832ZM9.66467 14.8187L9.31112 15.1723L9.66467 15.5259L10.0182 15.1723L9.66467 14.8187ZM10.2361 14.2473L10.5896 14.6009L10.9432 14.2473L10.5896 13.8938L10.2361 14.2473ZM15.9657 7.59633L9.77538 13.7867L10.4825 14.4938L16.6728 8.30343L15.9657 7.59633ZM15.3943 7.73203L15.9657 8.30343L16.6728 7.59633L16.1014 7.02493L15.3943 7.73203ZM9.91109 13.9224L16.1014 7.73203L15.3943 7.02493L9.20398 13.2153L9.91109 13.9224ZM6.34699 11.0654L9.20398 13.9224L9.91109 13.2153L7.05409 10.3583L6.34699 11.0654ZM6.48269 11.6368L7.05409 11.0654L6.34699 10.3583L5.77559 10.9297L6.48269 11.6368ZM10.0182 14.4652L6.48269 10.9297L5.77559 11.6368L9.31112 15.1723L10.0182 14.4652ZM9.88252 13.8938L9.31112 14.4652L10.0182 15.1723L10.5896 14.6009L9.88252 13.8938ZM9.77538 14.4938L9.88252 14.6009L10.5896 13.8938L10.4825 13.7867L9.77538 14.4938Z" fill="white"/>
</svg>
