<svg width="24" height="24" viewBox="0 0 24 24" fill="none" xmlns="http://www.w3.org/2000/svg">
<path fill-rule="evenodd" clip-rule="evenodd" d="M14.2509 9.58201C14.2509 13.1067 11.2846 15.9641 7.62544 15.9641C6.45964 15.9641 5.36418 15.674 4.41255 15.1648L1.9439 16.2235L2.71942 13.8713C1.65107 12.7381 1 11.2333 1 9.58201C1 6.0573 3.96631 3.19995 7.62544 3.19995C11.2846 3.19995 14.2509 6.0573 14.2509 9.58201ZM7.81514 11.428C7.70258 11.4484 7.58503 11.4585 7.4625 11.4585C7.19883 11.4585 6.95664 11.4107 6.73594 11.315C6.51719 11.2193 6.32773 11.0816 6.16758 10.9019C6.00742 10.7222 5.8834 10.5044 5.79551 10.2486C5.70762 9.99077 5.66367 9.70073 5.66367 9.37847V9.15874C5.66367 8.83452 5.70664 8.54448 5.79258 8.28862C5.88047 8.03276 6.00352 7.81499 6.16172 7.6353C6.32188 7.45366 6.51133 7.31499 6.73008 7.21929C6.95078 7.12358 7.19297 7.07573 7.45664 7.07573C7.72227 7.07573 7.96445 7.12358 8.1832 7.21929C8.40391 7.31499 8.59336 7.45366 8.75156 7.6353C8.91172 7.81499 9.03477 8.03276 9.1207 8.28862C9.20859 8.54448 9.25254 8.83452 9.25254 9.15874V9.37847C9.25254 9.70073 9.20957 9.99077 9.12363 10.2486C9.03769 10.5044 8.91465 10.7222 8.75449 10.9019C8.67974 10.9868 8.59822 11.0623 8.50994 11.1285L9.23203 11.7017L8.71641 12.15L7.81514 11.428ZM8.43809 9.15288V9.37847C8.43809 9.60894 8.4166 9.81304 8.37363 9.99077C8.33066 10.1685 8.26719 10.3189 8.1832 10.4419C8.10117 10.563 7.99961 10.6548 7.87852 10.7173C7.75742 10.7798 7.61875 10.8111 7.4625 10.8111C7.3082 10.8111 7.16953 10.7798 7.04648 10.7173C6.92539 10.6548 6.82188 10.563 6.73594 10.4419C6.65195 10.3189 6.5875 10.1685 6.54258 9.99077C6.49961 9.81304 6.47813 9.60894 6.47813 9.37847V9.15288C6.47813 8.92046 6.49961 8.71636 6.54258 8.54058C6.5875 8.36284 6.65195 8.21343 6.73594 8.09233C6.81992 7.97124 6.92246 7.88042 7.04355 7.81987C7.16465 7.75737 7.30234 7.72612 7.45664 7.72612C7.61289 7.72612 7.75156 7.75737 7.87266 7.81987C7.99375 7.88042 8.09629 7.97124 8.18027 8.09233C8.26621 8.21343 8.33066 8.36284 8.37363 8.54058C8.4166 8.71636 8.43809 8.92046 8.43809 9.15288Z" fill="#F2994A"/>
<path fill-rule="evenodd" clip-rule="evenodd" d="M22.9999 14.1584C22.9999 10.6337 20.0336 7.77637 16.3745 7.77637C15.7714 7.77637 15.1872 7.85398 14.6319 7.99941C15.1674 9.88522 15.005 14.1515 10.0713 16.1301C10.9336 18.6899 13.4297 20.5405 16.3745 20.5405C17.5403 20.5405 18.6358 20.2504 19.5874 19.7412L22.056 20.7999L21.2805 18.4477C22.3489 17.3146 22.9999 15.8097 22.9999 14.1584ZM16.3737 11.5343H16.5729L18.1755 15.7999H17.32L16.9995 14.8507H15.4065L15.0876 15.7999H14.235L15.8288 11.5343H16.0251H16.3737ZM15.6202 14.2149H16.7848L16.2011 12.4862L15.6202 14.2149Z" fill="#F2994A"/>
</svg>
