<svg width="25" height="24" viewBox="0 0 25 24" fill="none" xmlns="http://www.w3.org/2000/svg">
<path d="M24.006 17.9907L15.5235 2.40952C14.8766 1.34072 13.7516 0.693848 12.5 0.693848C11.2484 0.693848 10.1234 1.34072 9.47651 2.40952L0.994011 17.9907C0.34723 19.1017 0.33312 20.4236 0.96598 21.5345C1.59875 22.6454 2.73776 23.3063 4.0175 23.3063H20.9825C22.2622 23.3063 23.4013 22.6454 24.034 21.5345C24.6669 20.4236 24.6528 19.1017 24.006 17.9907Z" fill="#495A79"/>
<path d="M24.034 21.5345C23.4012 22.6454 22.2622 23.3063 20.9825 23.3063H12.5V0.693848C13.7516 0.693848 14.8766 1.34077 15.5235 2.40952L24.006 17.9907C24.6528 19.1017 24.6669 20.4236 24.034 21.5345Z" fill="#42516D"/>
<path d="M22.7965 18.7079L14.3139 3.12661C13.9343 2.47979 13.2453 2.1001 12.4999 2.1001C11.7545 2.1001 11.0655 2.47983 10.6859 3.12661L2.2033 18.7079C1.80959 19.3689 1.80959 20.1704 2.18933 20.8313C2.56897 21.5063 3.25798 21.9001 4.01745 21.9001H20.9825C21.7419 21.9001 22.4309 21.5063 22.8106 20.8313C23.1902 20.1704 23.1902 19.3689 22.7965 18.7079Z" fill="#FFDE33"/>
<path d="M22.8106 20.8313C22.431 21.5063 21.742 21.9001 20.9825 21.9001H12.5V2.1001C13.2454 2.1001 13.9344 2.47983 14.314 3.12661L22.7966 18.7079C23.1903 19.3689 23.1903 20.1704 22.8106 20.8313Z" fill="#FFBC33"/>
<path d="M12.5 20.4939C11.7248 20.4939 11.0938 19.8629 11.0938 19.0876C11.0938 18.3124 11.7248 17.6814 12.5 17.6814C13.2752 17.6814 13.9062 18.3124 13.9062 19.0876C13.9062 19.8629 13.2752 20.4939 12.5 20.4939Z" fill="#495A79"/>
<path d="M13.9062 14.8689C13.9062 15.6441 13.2752 16.2751 12.5 16.2751C11.7248 16.2751 11.0938 15.6441 11.0938 14.8689V7.83765C11.0938 7.06243 11.7248 6.4314 12.5 6.4314C13.2752 6.4314 13.9062 7.06243 13.9062 7.83765V14.8689Z" fill="#495A79"/>
<path d="M13.9062 19.0876C13.9062 18.3124 13.2752 17.6814 12.5 17.6814V20.4939C13.2752 20.4939 13.9062 19.8629 13.9062 19.0876Z" fill="#42516D"/>
<path d="M13.9062 14.8689V7.83765C13.9062 7.06243 13.2752 6.4314 12.5 6.4314V16.2751C13.2752 16.2751 13.9062 15.6441 13.9062 14.8689Z" fill="#42516D"/>
</svg>
